<?xml version="1.0" encoding="UTF-8"?>
<svg width="120px" height="20px" viewBox="0 0 120 20" version="1.1" xmlns="http://www.w3.org/2000/svg" xmlns:xlink="http://www.w3.org/1999/xlink">
    <title>726ED998-70FD-4341-95F6-76107A1B1758</title>
    <g id="Workfile" stroke="none" stroke-width="1" fill="none" fill-rule="evenodd">
        <g id="Menu-InStap" transform="translate(-48.000000, -22.000000)">
            <g id="Navigation/TopNav">
                <g id="Logo">
                    <g id="Logos/logo" transform="translate(48.000000, 22.000000)">
                        <g id="SnelStart_logo_zonder_payoff">
                            <polygon id="Path" fill="#FA6105" points="0 19.68 19.68 19.68 19.68 18.08 0 18.08"></polygon>
                            <path d="M0,17.12 L19.68,17.12 L19.68,0 L0,0 L0,17.12 L0,17.12 Z M14.08,14.88 L9.84,12.32 L5.6,14.88 L6.72,10.08 L2.96,6.88 L7.92,6.48 L10,1.92 L11.76,6.48 L16.72,6.88 L12.96,10.08 L14.08,14.88 L14.08,14.88 Z" id="Shape" fill="#0077C8"></path>
                            <path d="M24.4,14.16 C25.04,14.64 26.32,15.04 27.44,15.04 C29.12,15.04 29.92,14.24 29.92,13.12 C29.92,12 29.28,11.44 27.6,10.8 C25.36,10 24.24,8.72 24.24,7.2 C24.24,5.2 25.92,3.52 28.64,3.52 C29.92,3.52 31.04,3.92 31.76,4.32 L31.2,6 C30.72,5.68 29.76,5.28 28.64,5.28 C27.28,5.28 26.48,6.08 26.48,7.04 C26.48,8.08 27.2,8.56 28.88,9.2 C31.04,10 32.24,11.12 32.24,13.04 C32.24,15.28 30.48,16.8 27.52,16.8 C26.16,16.8 24.88,16.48 24,15.92 L24.4,14.16 L24.4,14.16 Z" id="Path" fill="#0077C8"></path>
                            <path d="M35.12,7.28 C35.12,6 35.12,4.88 35.04,3.84 L37.12,3.84 L37.28,5.92 L37.36,5.92 C38,4.72 39.44,3.52 41.52,3.52 C43.28,3.52 46,4.56 46,8.88 L46,16.4 L43.68,16.4 L43.68,9.12 C43.68,7.12 42.88,5.36 40.72,5.36 C39.2,5.36 38,6.4 37.6,7.68 C37.52,8 37.44,8.32 37.44,8.72 L37.44,16.32 L35.12,16.32 L35.12,7.28 L35.12,7.28 Z" id="Path" fill="#0077C8"></path>
                            <path d="M50.96,10.64 C51.04,13.76 52.96,15.04 55.28,15.04 C56.96,15.04 57.92,14.72 58.8,14.4 L59.2,16 C58.4,16.4 57.04,16.8 54.96,16.8 C51.04,16.8 48.72,14.24 48.72,10.4 C48.72,6.56 50.96,3.6 54.64,3.6 C58.8,3.6 59.84,7.2 59.84,9.52 C59.84,10 59.76,10.32 59.76,10.56 L50.96,10.56 L50.96,10.64 L50.96,10.64 Z M57.68,8.96 C57.68,7.52 57.04,5.2 54.48,5.2 C52.16,5.2 51.12,7.36 50.96,8.96 L57.68,8.96 L57.68,8.96 Z" id="Shape" fill="#0077C8"></path>
                            <path d="M68.32,13.04 C69.04,13.52 70.8,14 72,14 C73.2,14 73.68,13.6 73.68,12.96 C73.68,12.32 73.28,12 71.76,11.52 C69.12,10.64 68.08,9.2 68.16,7.68 C68.16,5.28 70.24,3.52 73.36,3.52 C74.88,3.52 76.16,4 76.96,4.4 L76.96,7.36 C76.4,7.04 74.56,6.32 73.44,6.32 C72.56,6.16 72,6.56 72,7.2 C72,7.84 72.48,8.08 74.08,8.64 C76.48,9.44 77.52,10.72 77.6,12.56 C77.6,14.96 75.68,16.72 72.08,16.72 C70.4,16.72 69.36,16.32 68.4,15.84 L68.32,13.04 L68.32,13.04 Z" id="Path" fill="#FA6105"></path>
                            <path d="M84,0.08 L84,4.32 L86.88,4.32 L86.88,7.28 L84,7.28 L84,11.28 C84,12.8 84.4,13.52 85.6,13.52 C86.08,13.52 86.48,13.44 86.8,13.44 L86.8,16.48 C86.24,16.72 85.36,16.8 84.24,16.8 C82.96,16.8 81.92,16.32 81.28,15.68 C80.56,14.96 80.16,13.68 80.16,11.92 L80.16,7.28 L80.16,4.32 L80.16,0.96 L84,0.08 L84,0.08 Z" id="Path" fill="#FA6105"></path>
                            <path d="M97.36,16.48 L97.12,15.2 L97.04,15.2 C96.24,16.24 94.88,16.8 93.36,16.8 C90.8,16.8 89.2,14.88 89.2,12.88 C89.2,9.6 92.16,8 96.72,8 L96.72,7.84 C96.72,7.2 96.32,6.16 94.4,6.16 C93.12,6.16 90.08,7.28 90.08,7.28 L90.08,4.32 C90.08,4.32 92.8,3.44 95.12,3.44 C99.36,3.44 100.72,5.92 100.72,8.96 L100.72,13.44 C100.72,14.64 100.8,15.84 100.88,16.56 L97.36,16.56 L97.36,16.48 Z M96.88,10.48 C94.8,10.48 93.2,10.96 93.2,12.48 C93.2,13.52 93.92,14 94.8,14 C95.76,14 96.64,13.36 96.88,12.56 C96.96,12.32 96.96,12.08 96.96,11.92 L96.88,10.48 L96.88,10.48 Z" id="Shape" fill="#FA6105"></path>
                            <path d="M120,7.28 L120,4.32 L117.12,4.32 L117.12,0.08 L113.2,0.96 L113.2,4.32 L113.12,4.32 L110.24,4.32 C109.04,4.32 107.92,4.24 107.28,6.08 L107.2,6.08 L107.2,3.76 L103.76,3.76 C103.84,4.88 103.84,6.08 103.84,8 L103.84,16.56 L107.84,16.56 L107.84,10.08 C107.84,9.76 107.84,9.44 107.92,9.2 C108.16,8 108.64,7.28 110.16,7.28 L113.28,7.28 L113.28,11.92 C113.28,13.76 113.68,14.96 114.4,15.68 C115.04,16.32 116.08,16.8 117.36,16.8 C118.48,16.8 119.44,16.64 119.92,16.48 L119.92,13.44 C119.6,13.52 119.28,13.52 118.72,13.52 C117.52,13.52 117.12,12.8 117.12,11.28 L117.12,7.28 C117.12,7.28 120,7.28 120,7.28 Z" id="Path" fill="#FA6105"></path>
                            <polygon id="Path" fill="#0077C8" points="62.72 0.64 62.72 16.48 65.04 16.48 65.04 0.08"></polygon>
                        </g>
                    </g>
                </g>
            </g>
        </g>
    </g>
</svg>